# xmcd
#
# Track frame offsets: 
#        150
#        951
#        9532
#        24829
#        43304
#        57205
#        69905
#        86342
#        95826
#        99222
#        120553
#        136327
#        152953
#
# Disc length: 2147 seconds
#
# Revision: 0
# Processed by: cddbd v1.5.1PL0 Copyright (c) Steve Scherf et al.
# Submitted via: ExactAudioCopy v0.95a5
#
DISCID=9408610d
DTITLE=Lo-Fi Breakdown - Live
DYEAR=2003
DGENRE=Bluegrass
TTITLE0=Introductions
TTITLE1=Randy Lynn Rag (Scraggs)
TTITLE2=Cabin In Caroline (Flatt/Scraggs)
TTITLE3=Black Ribbon Road (B.McNeil)
TTITLE4=No One Can Take The Place Of You (Miller)
TTITLE5=Night Fall (Schwellenback)
TTITLE6=I Wonder Where You Are Tonight (Bond)
TTITLE7=Ten Years Blue (Miller)
TTITLE8=Sailor's Hornpipe (Traditional)
TTITLE9=Beautiful Story (I. McNeil)
TTITLE10=Love Oh Love, Please Come Home (Jackson)
TTITLE11=Cumberland Blues (Hunter-Garcia-Lesh)
TTITLE12=Born To Be With You (Robertson)
EXTD=
EXTT0=
EXTT1=
EXTT2=
EXTT3=
EXTT4=
EXTT5=
EXTT6=
EXTT7=
EXTT8=
EXTT9=
EXTT10=
EXTT11=
EXTT12=
PLAYORDER=
